# xmcd
#
# Track frame offsets:
#	150
#	95687
#	139899
#	170466
#	228859
#
# Disc length: 4232 seconds
#
# Revision: 0
# Processed by: cddbd v1.5.2PL0 Copyright (c) Steve Scherf et al.
# Submitted via: audiograbber 1.83.01
#
DISCID=3b108605
DTITLE=Grateful Dead - 94-10-11 USAir Arena, Landover MD
DYEAR=1900
DGENRE=
TTITLE0=Eyes Of The World
TTITLE1=Men Smart, Women Smarter
TTITLE2=Samba In The Rain
TTITLE3=He's Gone
TTITLE4=Jam > Drums
EXTD=
EXTT0=
EXTT1=
EXTT2=
EXTT3=
EXTT4=
PLAYORDER=
